Coordinates
version=1
nRows=8
nColumns=63
inDegrees=yes

Units are S.I. units (second, meters, Newtons, ...)
If the header above contains a line with 'inDegrees', this indicates whether rotational values are in degrees (yes) or radians (no).

endheader
time	pelvis_tilt	pelvis_list	pelvis_rotation	pelvis_tx	pelvis_ty	pelvis_tz	hip_flexion_r	hip_adduction_r	hip_rotation_r	knee_angle_r	knee_angle_r_beta	ankle_angle_r	subtalar_angle_r	mtp_angle_r	hip_flexion_l	hip_adduction_l	hip_rotation_l	knee_angle_l	knee_angle_l_beta	ankle_angle_l	subtalar_angle_l	mtp_angle_l	L5_S1_Flex_Ext	L5_S1_Lat_Bending	L5_S1_axial_rotation	L4_L5_Flex_Ext	L4_L5_Lat_Bending	L4_L5_axial_rotation	L3_L4_Flex_Ext	L3_L4_Lat_Bending	L3_L4_axial_rotation	L2_L3_Flex_Ext	L2_L3_Lat_Bending	L2_L3_axial_rotation	L1_L2_Flex_Ext	L1_L2_Lat_Bending	L1_L2_axial_rotation	L1_T12_Flex_Ext	L1_T12_Lat_Bending	L1_T12_axial_rotation	Abs_r3	Abs_r2	Abs_r1	Abs_t1	Abs_t2	neck_flexion	neck_bending	neck_rotation	arm_flex_r	arm_add_r	arm_rot_r	elbow_flex_r	pro_sup_r	wrist_flex_r	wrist_dev_r	arm_flex_l	arm_add_l	arm_rot_l	elbow_flex_l	pro_sup_l	wrist_flex_l	wrist_dev_l
11.576271	-0.514015	3.980115	91.660733	0.128152	1.014148	0.194569	4.027505	-5.294668	-14.495197	15.099066	0.263528	22.585991	15.573958	0.000000	3.863526	0.659489	-5.948732	14.181917	0.247521	16.885295	4.722310	0.000000	-0.178002	0.263677	0.227127	-0.330567	0.350691	0.241323	-0.292439	0.641105	0.241323	-0.203438	0.641105	0.198736	-0.165293	0.537690	0.184541	-0.101710	0.408436	0.170345	-1.271450	2.982769	1.263214	0.000000	0.000000	-7.669381	-0.781355	0.526207	4.604260	-9.301442	13.728579	134.480122	85.070532	-14.806317	-2.075821	37.325473	-32.575304	49.370840	129.922771	89.119647	-10.780059	9.032123
11.593220	-0.498344	3.881553	91.625299	0.128879	1.014286	0.194099	3.997023	-5.189843	-14.579275	14.817832	0.258620	22.583641	15.695178	0.000000	3.824430	0.588785	-6.144937	14.004579	0.244426	16.909493	4.910908	0.000000	-0.158614	0.273905	0.268445	-0.294563	0.364293	0.285223	-0.260587	0.665972	0.285223	-0.181280	0.665972	0.234889	-0.147289	0.558547	0.218111	-0.090632	0.424278	0.201334	-1.132966	3.098466	1.493010	0.000000	0.000000	-7.348436	-1.121941	0.843370	4.033010	-9.115961	13.358575	132.741209	83.585394	-14.701862	-0.715223	36.124992	-32.943843	48.820163	129.451169	89.000435	-8.404173	11.513178
11.610169	-0.500572	3.787207	91.550417	0.129732	1.014434	0.193714	3.976464	-5.098630	-14.625863	14.545386	0.253865	22.579704	15.809248	0.000000	3.763821	0.531461	-6.417392	13.797027	0.240804	16.955162	5.169606	0.000000	-0.140086	0.278297	0.310756	-0.260153	0.370136	0.330179	-0.230147	0.676653	0.330179	-0.160104	0.676653	0.271912	-0.130083	0.567504	0.252490	-0.080045	0.431083	0.233067	-1.000617	3.148157	1.728333	0.000000	0.000000	-7.069528	-1.292017	1.102837	3.730423	-8.831216	12.855078	130.839063	81.972070	-14.664896	0.831182	35.238611	-33.207218	48.444949	128.766627	88.855510	-6.203856	13.673390
11.627119	-0.520648	3.700850	91.435946	0.130669	1.014607	0.193437	3.969336	-5.030588	-14.667746	14.298171	0.249550	22.577349	15.969688	0.000000	3.686711	0.488467	-6.770775	13.564984	0.236754	17.003973	5.515780	0.000000	-0.123306	0.277366	0.355601	-0.228991	0.368897	0.377826	-0.202579	0.674389	0.377826	-0.140926	0.674389	0.311150	-0.114502	0.565606	0.288925	-0.070457	0.429641	0.266700	-0.880760	3.137624	1.977743	0.000000	0.000000	-6.846394	-1.316874	1.263279	3.695391	-8.505307	12.319471	128.833847	80.260682	-14.830617	2.472546	34.682671	-33.326985	48.348750	127.829400	88.698162	-4.451711	15.297931
11.644068	-0.570210	3.626759	91.295238	0.131713	1.014769	0.193296	3.973425	-4.989348	-14.660602	14.079450	0.245733	22.609316	16.125233	0.000000	3.604268	0.471294	-7.174041	13.328027	0.232618	17.068667	5.916051	0.000000	-0.110660	0.270295	0.393538	-0.205507	0.359492	0.418135	-0.181804	0.657194	0.418135	-0.126474	0.657194	0.344346	-0.102759	0.551185	0.319750	-0.063231	0.418686	0.295154	-0.790436	3.057627	2.188742	0.000000	0.000000	-6.644320	-1.220028	1.416098	3.915305	-8.140635	11.849700	126.792096	78.637166	-15.273873	4.220415	34.417048	-33.349752	48.502110	126.710933	88.535794	-3.079087	16.452420
11.661017	-0.636422	3.542719	91.133432	0.132811	1.014886	0.193261	4.003610	-4.963705	-14.615009	13.876510	0.242191	22.660808	16.271758	0.000000	3.531443	0.471109	-7.619130	13.064708	0.228022	17.139155	6.385025	0.000000	-0.097877	0.258711	0.435449	-0.181768	0.344086	0.462664	-0.160802	0.629030	0.462664	-0.111864	0.629030	0.381018	-0.090889	0.527564	0.353802	-0.055927	0.400744	0.326587	-0.699127	2.926592	2.421836	0.000000	0.000000	-6.471802	-1.007303	1.463595	4.262483	-7.769338	11.368642	124.770826	76.912091	-15.709768	6.084383	34.449474	-33.219568	49.020516	125.393298	88.389278	-2.206457	17.040241
11.677966	-0.723062	3.476792	90.936727	0.133957	1.014982	0.193359	4.046990	-4.962227	-14.516291	13.720607	0.239470	22.733850	16.404720	0.000000	3.449790	0.492556	-8.103775	12.795257	0.223319	17.204755	6.884078	0.000000	-0.090230	0.242868	0.485523	-0.167567	0.323014	0.515868	-0.148239	0.590508	0.515868	-0.103124	0.590508	0.424833	-0.083788	0.495256	0.394488	-0.051558	0.376202	0.364142	-0.644506	2.747368	2.700335	0.000000	0.000000	-6.312885	-0.706782	1.390442	4.685229	-7.437250	10.883452	122.761814	75.120822	-16.109162	8.008267	34.725275	-32.943694	49.931281	123.897078	88.271988	-1.881448	16.983506
11.694915	-0.797582	3.406920	90.745754	0.135029	1.015027	0.193572	4.110455	-4.960972	-14.437551	13.601680	0.237394	22.802795	16.543481	0.000000	3.388627	0.509469	-8.542118	12.525469	0.218611	17.267880	7.370987	0.000000	-0.083380	0.227358	0.538876	-0.154846	0.302386	0.572555	-0.136986	0.552798	0.572555	-0.095296	0.552798	0.471516	-0.077427	0.463628	0.437836	-0.047644	0.352177	0.404157	-0.595578	2.571918	2.997065	0.000000	0.000000	-6.135458	-0.347556	1.188541	5.072559	-7.166488	10.319852	120.731496	73.433728	-16.254241	9.782153	35.115184	-32.502646	51.212211	122.294180	88.192459	-2.187118	16.497918
